HIERARCHY
ROOT Hips
{
	OFFSET 0.000000 35.082581 0.000000
	CHANNELS 6 Xposition Yposition Zposition Xrotation Yrotation Zrotation 
	JOINT Spine
	{
		OFFSET 0.000000 6.876099 0.125700
		CHANNELS 3 Xrotation Yrotation Zrotation
		JOINT Spine1
		{
			OFFSET 0.000000 5.730043 0.104720
			CHANNELS 3 Xrotation Yrotation Zrotation
			JOINT Spine1_split
			{
				OFFSET 0.000000 5.730043 0.104720
				CHANNELS 3 Xrotation Yrotation Zrotation
				JOINT Spine2
				{
					OFFSET 0.000000 5.730043 0.104720
					CHANNELS 3 Xrotation Yrotation Zrotation
					JOINT Neck
					{
						OFFSET 0.000000 10.314075 0.188496
						CHANNELS 3 Xrotation Yrotation Zrotation
						JOINT Head
						{
							OFFSET 0.000000 7.643700 -2.377400
							CHANNELS 3 Xrotation Yrotation Zrotation
							JOINT HeadTop_End
							{
								OFFSET 0.000000 43.788605 -13.619600
								CHANNELS 3 Xrotation Yrotation Zrotation
								End Site
								{
									OFFSET 0.000000 0.000000 0.000000
								}
							}
						}
					}
					JOINT LeftShoulder
					{
						OFFSET 2.196100 4.412489 0.087492
						CHANNELS 3 Xrotation Yrotation Zrotation
						JOINT LeftShoulder_split
						{
							OFFSET 2.196100 4.412489 0.087492
							CHANNELS 3 Xrotation Yrotation Zrotation
							JOINT LeftArm
							{
								OFFSET 8.771219 -2.981674 -0.026999
								CHANNELS 3 Xrotation Yrotation Zrotation
								JOINT LeftForeArm
								{
									OFFSET 8.512804 0.000000 -0.000000
									CHANNELS 3 Xrotation Yrotation Zrotation
									JOINT LeftHand
									{
										OFFSET 18.484802 0.000000 -0.000000
										CHANNELS 3 Xrotation Yrotation Zrotation
										JOINT LeftHandThumb1
										{
											OFFSET 2.499420 -1.158070 2.653252
											CHANNELS 3 Xrotation Yrotation Zrotation
											JOINT LeftHandThumb2
											{
												OFFSET 2.370079 -1.368366 1.368366
												CHANNELS 3 Xrotation Yrotation Zrotation
												JOINT LeftHandThumb3
												{
													OFFSET 2.676727 -1.545410 1.545409
													CHANNELS 3 Xrotation Yrotation Zrotation
													JOINT LeftHandThumb4
													{
														OFFSET 1.692226 -0.977005 0.977007
														CHANNELS 3 Xrotation Yrotation Zrotation
														End Site
														{
															OFFSET 0.000000 0.000000 0.000000
														}
													}
												}
											}
										}
										JOINT LeftHandIndex1
										{
											OFFSET 7.924831 -0.457527 2.345128
											CHANNELS 3 Xrotation Yrotation Zrotation
											JOINT LeftHandIndex2
											{
												OFFSET 3.643303 0.000000 0.000000
												CHANNELS 3 Xrotation Yrotation Zrotation
												JOINT LeftHandIndex3
												{
													OFFSET 3.810799 0.000000 0.000000
													CHANNELS 3 Xrotation Yrotation Zrotation
													JOINT LeftHandIndex4
													{
														OFFSET 2.403702 0.000000 0.000000
														CHANNELS 3 Xrotation Yrotation Zrotation
														End Site
														{
															OFFSET 0.000000 0.000000 0.000000
														}
													}
												}
											}
										}
										JOINT LeftHandMiddle1
										{
											OFFSET 8.563995 0.000000 -0.000000
											CHANNELS 3 Xrotation Yrotation Zrotation
											JOINT LeftHandMiddle2
											{
												OFFSET 3.861618 0.000000 0.000000
												CHANNELS 3 Xrotation Yrotation Zrotation
												JOINT LeftHandMiddle3
												{
													OFFSET 3.701603 0.000000 0.000000
													CHANNELS 3 Xrotation Yrotation Zrotation
													JOINT LeftHandMiddle4
													{
														OFFSET 2.322544 0.000000 0.000000
														CHANNELS 3 Xrotation Yrotation Zrotation
														End Site
														{
															OFFSET 0.000000 0.000000 0.000000
														}
													}
												}
											}
										}
										JOINT LeftHandRing1
										{
											OFFSET 8.426460 -0.424637 -3.286992
											CHANNELS 3 Xrotation Yrotation Zrotation
											JOINT LeftHandRing2
											{
												OFFSET 3.126408 0.000000 0.000000
												CHANNELS 3 Xrotation Yrotation Zrotation
												JOINT LeftHandRing3
												{
													OFFSET 3.085026 0.000000 0.000000
													CHANNELS 3 Xrotation Yrotation Zrotation
													JOINT LeftHandRing4
													{
														OFFSET 1.644005 0.000000 0.000000
														CHANNELS 3 Xrotation Yrotation Zrotation
														End Site
														{
															OFFSET 0.000000 0.000000 0.000000
														}
													}
												}
											}
										}
									}
								}
							}
						}
					}
					JOINT RightShoulder
					{
						OFFSET -2.196100 4.412496 0.070690
						CHANNELS 3 Xrotation Yrotation Zrotation
						JOINT RightShoulder_split
						{
							OFFSET -2.196100 4.412496 0.070690
							CHANNELS 3 Xrotation Yrotation Zrotation
							JOINT RightArm
							{
								OFFSET -8.771282 -2.981682 -0.094208
								CHANNELS 3 Xrotation Yrotation Zrotation
								JOINT RightForeArm
								{
									OFFSET -8.494598 0.000000 0.000000
									CHANNELS 3 Xrotation Yrotation Zrotation
									JOINT RightHand
									{
										OFFSET -18.483803 0.000000 0.000001
										CHANNELS 3 Xrotation Yrotation Zrotation
										JOINT RightHandThumb1
										{
											OFFSET -2.527351 -1.008072 2.575253
											CHANNELS 3 Xrotation Yrotation Zrotation
											JOINT RightHandThumb2
											{
												OFFSET -2.321518 -1.340328 1.340329
												CHANNELS 3 Xrotation Yrotation Zrotation
												JOINT RightHandThumb3
												{
													OFFSET -2.657753 -1.534454 1.534455
													CHANNELS 3 Xrotation Yrotation Zrotation
													JOINT RightHandThumb4
													{
														OFFSET -1.807510 -1.043568 1.043567
														CHANNELS 3 Xrotation Yrotation Zrotation
														End Site
														{
															OFFSET 0.000000 0.000000 0.000000
														}
													}
												}
											}
										}
										JOINT RightHandIndex1
										{
											OFFSET -8.811420 0.015533 2.887987
											CHANNELS 3 Xrotation Yrotation Zrotation
											JOINT RightHandIndex2
											{
												OFFSET -3.537502 0.000000 0.000000
												CHANNELS 3 Xrotation Yrotation Zrotation
												JOINT RightHandIndex3
												{
													OFFSET -3.356201 0.000000 0.000000
													CHANNELS 3 Xrotation Yrotation Zrotation
													JOINT RightHandIndex4
													{
														OFFSET -1.933098 0.000000 0.000000
														CHANNELS 3 Xrotation Yrotation Zrotation
														End Site
														{
															OFFSET 0.000000 0.000000 0.000000
														}
													}
												}
											}
										}
										JOINT RightHandMiddle1
										{
											OFFSET -8.178135 0.000000 0.000000
											CHANNELS 3 Xrotation Yrotation Zrotation
											JOINT RightHandMiddle2
											{
												OFFSET -3.901302 0.000000 0.000000
												CHANNELS 3 Xrotation Yrotation Zrotation
												JOINT RightHandMiddle3
												{
													OFFSET -3.909599 0.000000 0.000000
													CHANNELS 3 Xrotation Yrotation Zrotation
													JOINT RightHandMiddle4
													{
														OFFSET -2.376003 0.000000 0.000000
														CHANNELS 3 Xrotation Yrotation Zrotation
														End Site
														{
															OFFSET 0.000000 0.000000 0.000000
														}
													}
												}
											}
										}
										JOINT RightHandRing1
										{
											OFFSET -7.559013 0.014137 -2.865403
											CHANNELS 3 Xrotation Yrotation Zrotation
											JOINT RightHandRing2
											{
												OFFSET -3.449306 0.000000 0.000000
												CHANNELS 3 Xrotation Yrotation Zrotation
												JOINT RightHandRing3
												{
													OFFSET -3.362106 0.000000 0.000000
													CHANNELS 3 Xrotation Yrotation Zrotation
													JOINT RightHandRing4
													{
														OFFSET -2.076401 0.000000 0.000000
														CHANNELS 3 Xrotation Yrotation Zrotation
														End Site
														{
															OFFSET 0.000000 0.000000 0.000000
														}
													}
												}
											}
										}
									}
								}
							}
						}
					}
				}
			}
		}
	}
	JOINT LeftUpLeg
	{
		OFFSET 10.205400 -3.823500 0.155100
		CHANNELS 3 Xrotation Yrotation Zrotation
		JOINT LeftLeg
		{
			OFFSET 0.708757 -12.982077 0.567790
			CHANNELS 3 Xrotation Yrotation Zrotation
			JOINT LeftFoot
			{
				OFFSET -0.708756 -10.717838 -2.184338
				CHANNELS 3 Xrotation Yrotation Zrotation
				JOINT LeftToeBase
				{
					OFFSET 0.108149 -7.191104 7.560241
					CHANNELS 3 Xrotation Yrotation Zrotation
					JOINT LeftToe_End
					{
						OFFSET 0.070230 0.081724 4.490308
						CHANNELS 3 Xrotation Yrotation Zrotation
						End Site
						{
							OFFSET 0.000000 0.000000 0.000000
						}
					}
				}
			}
		}
	}
	JOINT RightUpLeg
	{
		OFFSET -10.205400 -3.823500 0.005500
		CHANNELS 3 Xrotation Yrotation Zrotation
		JOINT RightLeg
		{
			OFFSET -0.708756 -12.982134 0.610632
			CHANNELS 3 Xrotation Yrotation Zrotation
			JOINT RightFoot
			{
				OFFSET 0.708754 -10.717769 -1.945823
				CHANNELS 3 Xrotation Yrotation Zrotation
				JOINT RightToeBase
				{
					OFFSET -0.108140 -7.191069 7.372968
					CHANNELS 3 Xrotation Yrotation Zrotation
					JOINT RightToe_End
					{
						OFFSET -0.070227 0.081735 4.479403
						CHANNELS 3 Xrotation Yrotation Zrotation
						End Site
						{
							OFFSET 0.000000 0.000000 0.000000
						}
					}
				}
			}
		}
	}
}
MOTION
Frames: 4
Frame Time: 0.016667
-1.599770 29.467472 0.990875 -7.701403 23.023840 7.677843 19.080955 1.106250 1.429172 5.234400 1.638212 -0.510233 0.000000 0.000000 0.000000 5.225532 1.690296 -0.516649 -17.295338 -9.726849 -7.669280 -20.599086 -12.220329 0.353306 -0.000000 0.000000 0.000000 -0.697457 -12.691487 -24.679611 0.000000 0.000000 0.000000 -13.018070 -5.162532 -28.488921 51.978781 -46.839682 7.482891 4.023810 -22.781645 14.370757 11.432774 11.898656 2.278038 0.907261 24.171828 -3.294988 -0.000006 0.000001 0.000011 -0.000002 0.000000 0.000001 -4.825731 9.288204 -23.825209 3.434080 9.250177 -40.028399 -0.000004 0.000002 -0.000002 0.000001 0.000001 -0.000001 -11.628065 16.087788 -27.374734 11.222068 9.790874 -61.810364 0.000005 0.000003 -0.000004 0.000003 0.000002 0.000000 -8.924451 18.188758 -48.130772 11.602456 5.110924 -60.456402 -0.000002 -0.000007 0.000002 -0.000001 -0.000002 0.000000 6.242214 -2.614798 -11.084420 0.000000 0.000000 0.000000 -35.911386 -11.573006 -6.604751 -129.166090 14.300492 149.579326 18.373680 2.814411 -8.754316 -10.063579 -12.114441 -5.432845 -8.224842 -5.483053 5.365300 -0.000003 0.000002 0.000003 0.000001 -0.000001 0.000003 4.411663 -5.661972 62.206283 9.270945 -12.376247 79.811758 0.000009 -0.000009 0.000005 0.000000 0.000001 -0.000002 -5.517159 -19.375239 62.311467 15.444350 -10.143947 85.739959 0.000010 0.000001 0.000010 0.000001 0.000000 0.000003 -7.692913 -21.406014 73.131245 13.187964 -6.413927 74.081912 0.000008 0.000006 -0.000001 0.000000 -0.000002 -0.000001 -29.120119 -16.461000 8.306614 46.647214 -1.509680 -0.045256 -13.558989 -4.883526 -20.692538 -0.000137 -0.000003 -0.000004 0.000000 -0.000000 0.000000 -1.592944 -29.201111 -26.821700 55.181911 5.339456 0.524256 -47.868629 -10.426922 14.245787 0.000019 0.000002 0.000000 0.000000 0.000000 0.000000 
-1.681549 29.466728 1.128373 -7.929001 24.689618 7.706315 18.997905 1.004988 1.397300 5.096428 1.511987 -0.476951 0.000000 0.000000 0.000000 5.088406 1.550694 -0.475988 -18.172869 -7.374433 -11.412607 -20.891293 -12.073563 1.777839 -0.000002 -0.000000 -0.000000 -0.787877 -12.075489 -26.714938 0.000000 0.000000 0.000000 -11.942303 -3.432187 -26.261553 55.390908 -49.285183 10.889122 5.145000 -22.468985 14.527700 11.432781 11.898654 2.278044 1.501899 25.466710 -3.312471 -0.000006 -0.000006 0.000015 -0.000004 -0.000003 -0.000001 -3.794576 7.957283 -23.971116 4.254747 10.064935 -46.827692 0.000001 0.000001 -0.000001 0.000002 -0.000001 0.000002 -11.756375 14.887292 -29.374205 11.904630 9.966838 -65.739601 0.000007 0.000000 -0.000007 0.000001 -0.000001 -0.000002 -9.476082 18.032227 -49.017785 11.714556 5.347359 -61.842869 0.000000 -0.000005 0.000002 -0.000003 -0.000001 -0.000000 7.717152 -7.373792 -5.050555 0.000000 0.000000 0.000000 -43.972147 -21.360513 -11.904040 -118.831303 10.484308 148.086452 21.961614 11.634002 -14.248322 -10.063571 -12.114467 -5.432875 -8.226149 -5.485140 5.369689 -0.000004 0.000001 -0.000001 -0.000000 0.000000 -0.000000 2.105036 -3.843918 56.888632 9.938176 -12.409271 83.561183 0.000008 -0.000009 0.000009 -0.000001 0.000001 -0.000001 -5.678327 -19.240267 61.807311 15.499933 -10.129680 85.942638 0.000008 -0.000001 0.000008 -0.000001 -0.000000 -0.000000 -7.133044 -21.873433 74.675578 13.186724 -6.412968 74.079993 0.000011 0.000007 0.000002 0.000002 0.000002 -0.000004 -29.637700 -18.283083 7.808235 46.212285 -1.417936 -0.043606 -12.888840 -4.935480 -21.215114 -0.000137 -0.000001 -0.000004 -0.000000 0.000000 0.000000 0.622390 -31.166990 -25.603849 53.231933 5.184862 0.549581 -47.775162 -10.897889 14.363126 0.000017 0.000001 -0.000001 0.000000 0.000001 -0.000000 
-1.751649 29.460880 1.281458 -8.072739 26.766693 8.058721 19.004819 0.618713 1.462978 5.119965 0.756766 -0.529775 0.000000 0.000000 0.000000 5.119972 0.792227 -0.531182 -18.019883 -6.128817 -11.431356 -23.168540 -10.769679 0.960113 0.000001 -0.000000 0.000000 -0.786553 -12.473164 -26.068163 0.000000 0.000000 0.000000 -9.832100 0.874616 -25.954340 55.683787 -52.355753 13.970454 5.154054 -22.384094 15.753900 11.432775 11.898658 2.278036 2.008790 26.268626 -3.133996 -0.000005 -0.000007 0.000012 -0.000001 -0.000003 -0.000001 -2.251134 6.806031 -25.190445 5.503132 11.025399 -56.130338 -0.000002 0.000003 -0.000002 -0.000001 0.000001 0.000000 -11.459835 14.203334 -33.122630 12.927605 10.135842 -71.691919 0.000007 -0.000001 -0.000006 -0.000000 0.000001 0.000000 -10.290490 17.678200 -51.680975 12.170176 5.710944 -65.667583 0.000002 -0.000004 0.000000 -0.000000 0.000003 -0.000001 8.148606 -9.861659 -1.652946 0.000000 0.000000 0.000000 -54.292436 -30.007832 -14.466117 -110.199925 8.391178 146.424789 18.072102 15.336307 -13.285902 -10.063555 -12.114463 -5.432839 -8.227460 -5.487221 5.374039 -0.000004 0.000000 0.000001 0.000004 -0.000004 0.000001 1.196555 -3.158870 56.657290 10.312582 -12.414098 85.657723 0.000007 -0.000007 0.000012 0.000003 -0.000000 0.000001 -5.742747 -19.186649 61.604024 15.602937 -10.102570 86.317424 0.000008 -0.000001 0.000007 0.000000 0.000000 0.000001 -6.814835 -22.127532 75.537719 13.249254 -6.405592 74.350598 0.000009 0.000006 0.000000 0.000002 0.000000 0.000000 -30.404570 -20.256529 6.719626 45.188935 -1.264197 -0.041809 -11.729867 -5.009434 -21.719412 -0.000141 -0.000002 -0.000003 0.000000 0.000001 -0.000000 2.859390 -33.421769 -24.672189 51.205150 5.112135 0.582269 -47.778406 -11.564946 14.612529 0.000014 0.000001 0.000001 0.000000 -0.000000 0.000000 
-1.811503 29.468761 1.414126 -8.019094 28.612272 8.336847 19.016160 0.098960 1.561561 5.137557 -0.395258 -0.742507 0.000000 0.000000 0.000000 5.145105 -0.355853 -0.748200 -17.870381 -5.140440 -11.214733 -24.990202 -9.168332 -0.055152 -0.000002 -0.000001 0.000000 -0.729896 -12.936525 -24.594060 0.000000 0.000000 0.000000 -7.448415 5.738897 -26.622687 53.665886 -55.184090 15.413780 5.030915 -22.352315 16.946787 11.432753 11.898668 2.278052 2.417351 26.741181 -2.824118 -0.000003 -0.000003 0.000014 -0.000003 -0.000003 -0.000002 -0.680612 5.686692 -26.936062 6.891979 11.728976 -65.387819 0.000000 0.000003 -0.000007 -0.000000 -0.000002 -0.000001 -11.129771 13.721705 -37.247501 13.953067 10.245310 -77.699330 0.000008 -0.000000 -0.000007 -0.000000 0.000002 -0.000001 -11.165338 17.079402 -55.081111 12.723731 6.058983 -69.966866 -0.000000 0.000001 0.000001 -0.000002 0.000002 -0.000002 8.112590 -11.609560 1.893626 0.000000 0.000000 0.000000 -67.056154 -34.147616 -17.067535 -102.494249 5.567634 145.072316 10.148211 17.432301 -8.852111 -10.063567 -12.114479 -5.432853 -8.228744 -5.489371 5.378382 -0.000011 -0.000000 0.000000 0.000001 -0.000002 -0.000002 0.713232 -2.871458 56.761331 10.462538 -12.409633 86.501218 0.000007 -0.000008 0.000010 -0.000003 0.000000 -0.000000 -5.871297 -19.074758 61.194096 15.711443 -10.073261 86.712557 0.000010 0.000002 0.000008 0.000001 -0.000003 -0.000002 -6.700040 -22.214809 75.840795 13.352724 -6.393752 74.797832 0.000010 0.000007 0.000001 -0.000002 0.000002 0.000000 -31.192607 -21.983688 5.705633 44.002053 -1.136275 -0.044225 -10.540485 -5.015393 -22.167876 -0.000140 -0.000002 -0.000003 0.000000 0.000000 -0.000000 4.671826 -35.355839 -23.763184 49.349899 5.027943 0.604906 -47.664694 -12.163273 14.838369 0.000018 0.000001 0.000001 0.000000 -0.000000 0.000000 
